{
    "asset": {
        "version": "2.0",
        "generator": "Open Asset Import Library (assimp v5.2.cf7d3637)"
    },
    "extensionsUsed": [
        "KHR_materials_volume",
        "FB_ngon_encoding"
    ],
    "accessors": [
        {
            "bufferView": 0,
            "byteOffset": 0,
            "componentType": 5126,
            "count": 29910,
            "type": "VEC3",
            "max": [
                0.8260890245437622,
                1.002519965171814,
                0.02900400012731552
            ],
            "min": [
                -0.8258730173110962,
                -1.0023200511932374,
                -0.02951500006020069
            ]
        },
        {
            "bufferView": 1,
            "byteOffset": 0,
            "componentType": 5126,
            "count": 29910,
            "type": "VEC3",
            "max": [
                0.9999991655349731,
                0.9999984502792358,
                1.0
            ],
            "min": [
                -1.0,
                -0.9999552965164185,
                -1.0
            ]
        },
        {
            "bufferView": 2,
            "byteOffset": 0,
            "componentType": 5126,
            "count": 29910,
            "type": "VEC2",
            "max": [
                0.998046875,
                1.0
            ],
            "min": [
                0.000012993812561035157,
                0.0000020265579223632814
            ]
        },
        {
            "bufferView": 3,
            "byteOffset": 0,
            "componentType": 5125,
            "count": 29910,
            "type": "SCALAR",
            "max": [
                29909
            ],
            "min": [
                0
            ]
        }
    ],
    "buffers": [
        {
            "byteLength": 1076760,
            "uri": "flat_marker.gltf"
        }
    ],
    "bufferViews": [
        {
            "buffer": 0,
            "byteOffset": 0,
            "byteLength": 358920,
            "target": 34962
        },
        {
            "buffer": 0,
            "byteOffset": 358920,
            "byteLength": 358920,
            "target": 34962
        },
        {
            "buffer": 0,
            "byteOffset": 717840,
            "byteLength": 239280,
            "target": 34962
        },
        {
            "buffer": 0,
            "byteOffset": 957120,
            "byteLength": 119640,
            "target": 34963
        }
    ],
    "images": [
        {
            "uri": "data:image/jpeg;base64,"
        }
    ],
    "materials": [
        {
            "name": "material",
            "pbrMetallicRoughness": {
                "baseColorTexture": {
                    "index": 0
                },
                "metallicFactor": 0.0,
                "roughnessFactor": 0.800000011920929
            },
            "doubleSided": true
        },
        {
            "name": "material"
        }
    ],
    "meshes": [
        {
            "name": "meshes[0]",
            "primitives": [
                {
                    "mode": 4,
                    "material": 0,
                    "indices": 3,
                    "attributes": {
                        "POSITION": 0,
                        "NORMAL": 1,
                        "TEXCOORD_0": 2
                    }
                }
            ]
        }
    ],
    "nodes": [
        {
            "name": "nodes[0]",
            "mesh": 0
        }
    ],
    "samplers": [
        {
            "magFilter": 9729,
            "minFilter": 9987
        }
    ],
    "scenes": [
        {
            "nodes": [
                0
            ]
        }
    ],
    "textures": [
        {
            "source": 0,
            "sampler": 0
        }
    ],
    "scene": 0
}